<?xml version="1.0" encoding="UTF-8" standalone="no"?>
<!DOCTYPE svg PUBLIC "-//W3C//DTD SVG 1.1//EN"
 "http://www.w3.org/Graphics/SVG/1.1/DTD/svg11.dtd">
<!-- Generated by graphviz version 2.36.0 (20140111.2315)
 -->
<!-- Title: controllers_diagram Pages: 1 -->
<svg width="380pt" height="234pt"
 viewBox="0.00 0.00 380.38 234.00" xmlns="http://www.w3.org/2000/svg" xmlns:xlink="http://www.w3.org/1999/xlink">
<g id="graph0" class="graph" transform="scale(1 1) rotate(0) translate(4 230)">
<title>controllers_diagram</title>
<polygon fill="white" stroke="none" points="-4,4 -4,-230 376.375,-230 376.375,4 -4,4"/>
<!-- _diagram_info -->
<g id="node1" class="node"><title>_diagram_info</title>
<text text-anchor="start" x="173" y="-178.6" font-family="Times,serif" font-size="13.00">Controllers diagram</text>
<text text-anchor="start" x="173" y="-165.6" font-family="Times,serif" font-size="13.00">Date: Apr 02 2014 &#45; 16:00</text>
<text text-anchor="start" x="173" y="-152.6" font-family="Times,serif" font-size="13.00">Migration version: 20140402195714</text>
<text text-anchor="start" x="173" y="-139.6" font-family="Times,serif" font-size="13.00">Generated by RailRoady 1.1.1</text>
<text text-anchor="start" x="173" y="-126.6" font-family="Times,serif" font-size="13.00">http://railroady.prestonlee.com</text>
</g>
<!-- ApplicationController -->
<g id="node2" class="node"><title>ApplicationController</title>
<path fill="none" stroke="black" d="M12,-0.5C12,-0.5 185.932,-0.5 185.932,-0.5 191.932,-0.5 197.932,-6.5 197.932,-12.5 197.932,-12.5 197.932,-78.5 197.932,-78.5 197.932,-84.5 191.932,-90.5 185.932,-90.5 185.932,-90.5 12,-90.5 12,-90.5 6,-90.5 0,-84.5 0,-78.5 0,-78.5 0,-12.5 0,-12.5 0,-6.5 6,-0.5 12,-0.5"/>
<text text-anchor="middle" x="98.9658" y="-75.3" font-family="Times,serif" font-size="14.00">ApplicationController</text>
<polyline fill="none" stroke="black" points="0,-68.5 197.932,-68.5 "/>
<polyline fill="none" stroke="black" points="0,-44.5 197.932,-44.5 "/>
<text text-anchor="start" x="8" y="-29.3" font-family="Times,serif" font-size="14.00">configure_permitted_parameters</text>
<polyline fill="none" stroke="black" points="0,-22.5 197.932,-22.5 "/>
<text text-anchor="start" x="8" y="-7.3" font-family="Times,serif" font-size="14.00">_layout</text>
</g>
<!-- HomeController -->
<g id="node3" class="node"><title>HomeController</title>
<path fill="none" stroke="black" d="M42,-135.5C42,-135.5 125.759,-135.5 125.759,-135.5 131.759,-135.5 137.759,-141.5 137.759,-147.5 137.759,-147.5 137.759,-213.5 137.759,-213.5 137.759,-219.5 131.759,-225.5 125.759,-225.5 125.759,-225.5 42,-225.5 42,-225.5 36,-225.5 30,-219.5 30,-213.5 30,-213.5 30,-147.5 30,-147.5 30,-141.5 36,-135.5 42,-135.5"/>
<text text-anchor="middle" x="83.8794" y="-210.3" font-family="Times,serif" font-size="14.00">HomeController</text>
<polyline fill="none" stroke="black" points="30,-203.5 137.759,-203.5 "/>
<text text-anchor="start" x="38" y="-188.3" font-family="Times,serif" font-size="14.00">index</text>
<polyline fill="none" stroke="black" points="30,-181.5 137.759,-181.5 "/>
<polyline fill="none" stroke="black" points="30,-157.5 137.759,-157.5 "/>
<text text-anchor="start" x="38" y="-142.3" font-family="Times,serif" font-size="14.00">_layout</text>
</g>
</g>
</svg>
