<?xml version="1.0" encoding="UTF-8" standalone="no"?>
<!DOCTYPE svg PUBLIC "-//W3C//DTD SVG 1.1//EN"
 "http://www.w3.org/Graphics/SVG/1.1/DTD/svg11.dtd">
<!-- Generated by graphviz version 2.36.0 (20140111.2315)
 -->
<!-- Title: models_diagram Pages: 1 -->
<svg width="544pt" height="678pt"
 viewBox="0.00 0.00 544.00 678.00" xmlns="http://www.w3.org/2000/svg" xmlns:xlink="http://www.w3.org/1999/xlink">
<g id="graph0" class="graph" transform="scale(1 1) rotate(0) translate(4 674)">
<title>models_diagram</title>
<polygon fill="white" stroke="none" points="-4,4 -4,-674 540,-674 540,4 -4,4"/>
<!-- _diagram_info -->
<g id="node1" class="node"><title>_diagram_info</title>
<text text-anchor="start" x="7.31226" y="-655.1" font-family="Times,serif" font-size="13.00">Models diagram</text>
<text text-anchor="start" x="7.31226" y="-642.1" font-family="Times,serif" font-size="13.00">Date: Apr 02 2014 &#45; 16:00</text>
<text text-anchor="start" x="7.31226" y="-629.1" font-family="Times,serif" font-size="13.00">Migration version: 20140402195714</text>
<text text-anchor="start" x="7.31226" y="-616.1" font-family="Times,serif" font-size="13.00">Generated by RailRoady 1.1.1</text>
<text text-anchor="start" x="7.31226" y="-603.1" font-family="Times,serif" font-size="13.00">http://railroady.prestonlee.com</text>
</g>
<!-- Comment -->
<g id="node2" class="node"><title>Comment</title>
<path fill="none" stroke="black" d="M95.4946,-15C95.4946,-15 204.505,-15 204.505,-15 210.505,-15 216.505,-21 216.505,-27 216.505,-27 216.505,-89 216.505,-89 216.505,-95 210.505,-101 204.505,-101 204.505,-101 95.4946,-101 95.4946,-101 89.4946,-101 83.4946,-95 83.4946,-89 83.4946,-89 83.4946,-27 83.4946,-27 83.4946,-21 89.4946,-15 95.4946,-15"/>
<text text-anchor="middle" x="150" y="-85.8" font-family="Times,serif" font-size="14.00">Comment</text>
<polyline fill="none" stroke="black" points="83.4946,-79 216.505,-79 "/>
<text text-anchor="start" x="91.4946" y="-63.8" font-family="Times,serif" font-size="14.00">id :integer</text>
<text text-anchor="start" x="91.4946" y="-49.8" font-family="Times,serif" font-size="14.00">body :text</text>
<text text-anchor="start" x="91.4946" y="-35.8" font-family="Times,serif" font-size="14.00">created_at :datetime</text>
<text text-anchor="start" x="91.4946" y="-21.8" font-family="Times,serif" font-size="14.00">updated_at :datetime</text>
</g>
<!-- Email -->
<g id="node3" class="node"><title>Email</title>
<path fill="none" stroke="black" d="M258.319,-1C258.319,-1 369.681,-1 369.681,-1 375.681,-1 381.681,-7 381.681,-13 381.681,-13 381.681,-103 381.681,-103 381.681,-109 375.681,-115 369.681,-115 369.681,-115 258.319,-115 258.319,-115 252.319,-115 246.319,-109 246.319,-103 246.319,-103 246.319,-13 246.319,-13 246.319,-7 252.319,-1 258.319,-1"/>
<text text-anchor="middle" x="314" y="-99.8" font-family="Times,serif" font-size="14.00">Email</text>
<polyline fill="none" stroke="black" points="246.319,-93 381.681,-93 "/>
<text text-anchor="start" x="254.319" y="-77.8" font-family="Times,serif" font-size="14.00">id :integer</text>
<text text-anchor="start" x="254.319" y="-63.8" font-family="Times,serif" font-size="14.00">email_address :string</text>
<text text-anchor="start" x="254.319" y="-49.8" font-family="Times,serif" font-size="14.00">body :text</text>
<text text-anchor="start" x="254.319" y="-35.8" font-family="Times,serif" font-size="14.00">name :string</text>
<text text-anchor="start" x="254.319" y="-21.8" font-family="Times,serif" font-size="14.00">created_at :datetime</text>
<text text-anchor="start" x="254.319" y="-7.8" font-family="Times,serif" font-size="14.00">updated_at :datetime</text>
</g>
<!-- House -->
<g id="node4" class="node"><title>House</title>
<path fill="none" stroke="black" d="M251.495,-153C251.495,-153 360.505,-153 360.505,-153 366.505,-153 372.505,-159 372.505,-165 372.505,-165 372.505,-283 372.505,-283 372.505,-289 366.505,-295 360.505,-295 360.505,-295 251.495,-295 251.495,-295 245.495,-295 239.495,-289 239.495,-283 239.495,-283 239.495,-165 239.495,-165 239.495,-159 245.495,-153 251.495,-153"/>
<text text-anchor="middle" x="306" y="-279.8" font-family="Times,serif" font-size="14.00">House</text>
<polyline fill="none" stroke="black" points="239.495,-273 372.505,-273 "/>
<text text-anchor="start" x="247.495" y="-257.8" font-family="Times,serif" font-size="14.00">id :integer</text>
<text text-anchor="start" x="247.495" y="-243.8" font-family="Times,serif" font-size="14.00">price :integer</text>
<text text-anchor="start" x="247.495" y="-229.8" font-family="Times,serif" font-size="14.00">town :string</text>
<text text-anchor="start" x="247.495" y="-215.8" font-family="Times,serif" font-size="14.00">description :text</text>
<text text-anchor="start" x="247.495" y="-201.8" font-family="Times,serif" font-size="14.00">bedrooms :integer</text>
<text text-anchor="start" x="247.495" y="-187.8" font-family="Times,serif" font-size="14.00">bathrooms :integer</text>
<text text-anchor="start" x="247.495" y="-173.8" font-family="Times,serif" font-size="14.00">created_at :datetime</text>
<text text-anchor="start" x="247.495" y="-159.8" font-family="Times,serif" font-size="14.00">updated_at :datetime</text>
</g>
<!-- House&#45;&gt;Comment -->
<g id="edge3" class="edge"><title>House&#45;&gt;Comment</title>
<path fill="none" stroke="#46b125" d="M233.484,-146.765C221.164,-133.813 208.66,-120.668 197.211,-108.632"/>
<ellipse fill="none" stroke="#46b125" cx="236.633" cy="-150.075" rx="4.00002" ry="4.00002"/>
<polygon fill="#46b125" stroke="#46b125" points="197.121,-108.538 193.49,-98.1909 193.675,-104.915 190.229,-101.292 190.229,-101.292 190.229,-101.292 193.675,-104.915 186.969,-104.394 197.121,-108.538 197.121,-108.538"/>
</g>
<!-- House&#45;&gt;Email -->
<g id="edge4" class="edge"><title>House&#45;&gt;Email</title>
<path fill="none" stroke="#bed372" d="M309.808,-144.945C310.129,-138.352 310.452,-131.725 310.769,-125.235"/>
<ellipse fill="none" stroke="#bed372" cx="309.611" cy="-148.978" rx="4" ry="4"/>
<polygon fill="#bed372" stroke="#bed372" points="310.773,-125.161 315.754,-115.393 311.016,-120.167 311.26,-115.173 311.26,-115.173 311.26,-115.173 311.016,-120.167 306.765,-114.954 310.773,-125.161 310.773,-125.161"/>
</g>
<!-- Rating -->
<g id="node5" class="node"><title>Rating</title>
<path fill="none" stroke="black" d="M415.495,-8C415.495,-8 524.505,-8 524.505,-8 530.505,-8 536.505,-14 536.505,-20 536.505,-20 536.505,-96 536.505,-96 536.505,-102 530.505,-108 524.505,-108 524.505,-108 415.495,-108 415.495,-108 409.495,-108 403.495,-102 403.495,-96 403.495,-96 403.495,-20 403.495,-20 403.495,-14 409.495,-8 415.495,-8"/>
<text text-anchor="middle" x="470" y="-92.8" font-family="Times,serif" font-size="14.00">Rating</text>
<polyline fill="none" stroke="black" points="403.495,-86 536.505,-86 "/>
<text text-anchor="start" x="411.495" y="-70.8" font-family="Times,serif" font-size="14.00">id :integer</text>
<text text-anchor="start" x="411.495" y="-56.8" font-family="Times,serif" font-size="14.00">user_id :integer</text>
<text text-anchor="start" x="411.495" y="-42.8" font-family="Times,serif" font-size="14.00">value :integer</text>
<text text-anchor="start" x="411.495" y="-28.8" font-family="Times,serif" font-size="14.00">created_at :datetime</text>
<text text-anchor="start" x="411.495" y="-14.8" font-family="Times,serif" font-size="14.00">updated_at :datetime</text>
</g>
<!-- House&#45;&gt;Rating -->
<g id="edge5" class="edge"><title>House&#45;&gt;Rating</title>
<path fill="none" stroke="#41c4a8" d="M378.409,-150.591C390.21,-138.79 402.28,-126.72 413.623,-115.377"/>
<ellipse fill="none" stroke="#41c4a8" cx="375.534" cy="-153.466" rx="4.00002" ry="4.00002"/>
<polygon fill="#41c4a8" stroke="#41c4a8" points="413.89,-115.11 424.143,-111.221 417.426,-111.574 420.961,-108.039 420.961,-108.039 420.961,-108.039 417.426,-111.574 417.779,-104.857 413.89,-115.11 413.89,-115.11"/>
</g>
<!-- User -->
<g id="node6" class="node"><title>User</title>
<path fill="none" stroke="black" d="M215.722,-333C215.722,-333 396.278,-333 396.278,-333 402.278,-333 408.278,-339 408.278,-345 408.278,-345 408.278,-547 408.278,-547 408.278,-553 402.278,-559 396.278,-559 396.278,-559 215.722,-559 215.722,-559 209.722,-559 203.722,-553 203.722,-547 203.722,-547 203.722,-345 203.722,-345 203.722,-339 209.722,-333 215.722,-333"/>
<text text-anchor="middle" x="306" y="-543.8" font-family="Times,serif" font-size="14.00">User</text>
<polyline fill="none" stroke="black" points="203.722,-537 408.278,-537 "/>
<text text-anchor="start" x="211.722" y="-521.8" font-family="Times,serif" font-size="14.00">id :integer</text>
<text text-anchor="start" x="211.722" y="-507.8" font-family="Times,serif" font-size="14.00">email :string</text>
<text text-anchor="start" x="211.722" y="-493.8" font-family="Times,serif" font-size="14.00">encrypted_password :string</text>
<text text-anchor="start" x="211.722" y="-479.8" font-family="Times,serif" font-size="14.00">reset_password_token :string</text>
<text text-anchor="start" x="211.722" y="-465.8" font-family="Times,serif" font-size="14.00">reset_password_sent_at :datetime</text>
<text text-anchor="start" x="211.722" y="-451.8" font-family="Times,serif" font-size="14.00">remember_created_at :datetime</text>
<text text-anchor="start" x="211.722" y="-437.8" font-family="Times,serif" font-size="14.00">sign_in_count :integer</text>
<text text-anchor="start" x="211.722" y="-423.8" font-family="Times,serif" font-size="14.00">current_sign_in_at :datetime</text>
<text text-anchor="start" x="211.722" y="-409.8" font-family="Times,serif" font-size="14.00">last_sign_in_at :datetime</text>
<text text-anchor="start" x="211.722" y="-395.8" font-family="Times,serif" font-size="14.00">current_sign_in_ip :string</text>
<text text-anchor="start" x="211.722" y="-381.8" font-family="Times,serif" font-size="14.00">last_sign_in_ip :string</text>
<text text-anchor="start" x="211.722" y="-367.8" font-family="Times,serif" font-size="14.00">created_at :datetime</text>
<text text-anchor="start" x="211.722" y="-353.8" font-family="Times,serif" font-size="14.00">updated_at :datetime</text>
<text text-anchor="start" x="211.722" y="-339.8" font-family="Times,serif" font-size="14.00">username :string</text>
</g>
<!-- User&#45;&gt;House -->
<g id="edge8" class="edge"><title>User&#45;&gt;House</title>
<path fill="none" stroke="#d73386" d="M306,-324.645C306,-318.19 306,-311.783 306,-305.514"/>
<ellipse fill="none" stroke="#d73386" cx="306" cy="-328.744" rx="4" ry="4"/>
<polygon fill="#d73386" stroke="#d73386" points="306,-305.11 310.5,-295.11 306,-300.11 306,-295.11 306,-295.11 306,-295.11 306,-300.11 301.5,-295.11 306,-305.11 306,-305.11"/>
</g>
<!-- ActiveRecord::Base -->
<g id="node7" class="node"><title>ActiveRecord::Base</title>
<ellipse fill="none" stroke="black" cx="306" cy="-633" rx="80.9821" ry="18"/>
<text text-anchor="middle" x="306" y="-628.8" font-family="Times,serif" font-size="14.00">ActiveRecord::Base</text>
</g>
<!-- ActiveRecord::Base&#45;&gt;Comment -->
<g id="edge1" class="edge"><title>ActiveRecord::Base&#45;&gt;Comment</title>
<path fill="none" stroke="black" d="M269.69,-616.709C228.019,-598.8 164.542,-570.274 158,-560 65.1395,-414.161 111.645,-192.796 137.089,-101.08"/>
</g>
<!-- ActiveRecord::Base&#45;&gt;Email -->
<g id="edge2" class="edge"><title>ActiveRecord::Base&#45;&gt;Email</title>
<path fill="none" stroke="black" d="M346.751,-617.339C371.915,-605.917 402.142,-587.348 417,-560 460.452,-480.023 417.352,-235.444 381,-152 375.516,-139.412 368.121,-126.854 360.243,-115.223"/>
</g>
<!-- ActiveRecord::Base&#45;&gt;House -->
<g id="edge6" class="edge"><title>ActiveRecord::Base&#45;&gt;House</title>
<path fill="none" stroke="black" d="M265.249,-617.339C240.085,-605.917 209.858,-587.348 195,-560 146.624,-470.959 155.364,-425.26 195,-332 204.58,-309.46 221.492,-289.363 239.271,-272.843"/>
</g>
<!-- ActiveRecord::Base&#45;&gt;Rating -->
<g id="edge7" class="edge"><title>ActiveRecord::Base&#45;&gt;Rating</title>
<path fill="none" stroke="black" d="M355.64,-618.725C385.386,-608.009 421.011,-589.706 440,-560 530.929,-417.756 501.405,-203.849 481.671,-108.232"/>
</g>
<!-- ActiveRecord::Base&#45;&gt;User -->
<g id="edge9" class="edge"><title>ActiveRecord::Base&#45;&gt;User</title>
<path fill="none" stroke="black" d="M306,-614.927C306,-601.331 306,-581.007 306,-559.149"/>
</g>
</g>
</svg>
