<?xml version="1.0" encoding="UTF-8" standalone="no"?>
<!DOCTYPE svg PUBLIC "-//W3C//DTD SVG 1.1//EN"
 "http://www.w3.org/Graphics/SVG/1.1/DTD/svg11.dtd">
<!-- Generated by graphviz version 2.36.0 (20140111.2315)
 -->
<!-- Title: models_diagram Pages: 1 -->
<svg width="544pt" height="692pt"
 viewBox="0.00 0.00 544.00 692.00" xmlns="http://www.w3.org/2000/svg" xmlns:xlink="http://www.w3.org/1999/xlink">
<g id="graph0" class="graph" transform="scale(1 1) rotate(0) translate(4 688)">
<title>models_diagram</title>
<polygon fill="white" stroke="none" points="-4,4 -4,-688 540,-688 540,4 -4,4"/>
<!-- _diagram_info -->
<g id="node1" class="node"><title>_diagram_info</title>
<text text-anchor="start" x="7.31226" y="-669.1" font-family="Times,serif" font-size="13.00">Models diagram</text>
<text text-anchor="start" x="7.31226" y="-656.1" font-family="Times,serif" font-size="13.00">Date: Apr 03 2014 &#45; 11:29</text>
<text text-anchor="start" x="7.31226" y="-643.1" font-family="Times,serif" font-size="13.00">Migration version: 20140403152306</text>
<text text-anchor="start" x="7.31226" y="-630.1" font-family="Times,serif" font-size="13.00">Generated by RailRoady 1.1.1</text>
<text text-anchor="start" x="7.31226" y="-617.1" font-family="Times,serif" font-size="13.00">http://railroady.prestonlee.com</text>
</g>
<!-- Comment -->
<g id="node2" class="node"><title>Comment</title>
<path fill="none" stroke="black" d="M95.4946,-15C95.4946,-15 204.505,-15 204.505,-15 210.505,-15 216.505,-21 216.505,-27 216.505,-27 216.505,-89 216.505,-89 216.505,-95 210.505,-101 204.505,-101 204.505,-101 95.4946,-101 95.4946,-101 89.4946,-101 83.4946,-95 83.4946,-89 83.4946,-89 83.4946,-27 83.4946,-27 83.4946,-21 89.4946,-15 95.4946,-15"/>
<text text-anchor="middle" x="150" y="-85.8" font-family="Times,serif" font-size="14.00">Comment</text>
<polyline fill="none" stroke="black" points="83.4946,-79 216.505,-79 "/>
<text text-anchor="start" x="91.4946" y="-63.8" font-family="Times,serif" font-size="14.00">id :integer</text>
<text text-anchor="start" x="91.4946" y="-49.8" font-family="Times,serif" font-size="14.00">body :text</text>
<text text-anchor="start" x="91.4946" y="-35.8" font-family="Times,serif" font-size="14.00">created_at :datetime</text>
<text text-anchor="start" x="91.4946" y="-21.8" font-family="Times,serif" font-size="14.00">updated_at :datetime</text>
</g>
<!-- Email -->
<g id="node3" class="node"><title>Email</title>
<path fill="none" stroke="black" d="M258.319,-1C258.319,-1 369.681,-1 369.681,-1 375.681,-1 381.681,-7 381.681,-13 381.681,-13 381.681,-103 381.681,-103 381.681,-109 375.681,-115 369.681,-115 369.681,-115 258.319,-115 258.319,-115 252.319,-115 246.319,-109 246.319,-103 246.319,-103 246.319,-13 246.319,-13 246.319,-7 252.319,-1 258.319,-1"/>
<text text-anchor="middle" x="314" y="-99.8" font-family="Times,serif" font-size="14.00">Email</text>
<polyline fill="none" stroke="black" points="246.319,-93 381.681,-93 "/>
<text text-anchor="start" x="254.319" y="-77.8" font-family="Times,serif" font-size="14.00">id :integer</text>
<text text-anchor="start" x="254.319" y="-63.8" font-family="Times,serif" font-size="14.00">email_address :string</text>
<text text-anchor="start" x="254.319" y="-49.8" font-family="Times,serif" font-size="14.00">body :text</text>
<text text-anchor="start" x="254.319" y="-35.8" font-family="Times,serif" font-size="14.00">name :string</text>
<text text-anchor="start" x="254.319" y="-21.8" font-family="Times,serif" font-size="14.00">created_at :datetime</text>
<text text-anchor="start" x="254.319" y="-7.8" font-family="Times,serif" font-size="14.00">updated_at :datetime</text>
</g>
<!-- House -->
<g id="node4" class="node"><title>House</title>
<path fill="none" stroke="black" d="M251.495,-153C251.495,-153 360.505,-153 360.505,-153 366.505,-153 372.505,-159 372.505,-165 372.505,-165 372.505,-297 372.505,-297 372.505,-303 366.505,-309 360.505,-309 360.505,-309 251.495,-309 251.495,-309 245.495,-309 239.495,-303 239.495,-297 239.495,-297 239.495,-165 239.495,-165 239.495,-159 245.495,-153 251.495,-153"/>
<text text-anchor="middle" x="306" y="-293.8" font-family="Times,serif" font-size="14.00">House</text>
<polyline fill="none" stroke="black" points="239.495,-287 372.505,-287 "/>
<text text-anchor="start" x="247.495" y="-271.8" font-family="Times,serif" font-size="14.00">id :integer</text>
<text text-anchor="start" x="247.495" y="-257.8" font-family="Times,serif" font-size="14.00">price :integer</text>
<text text-anchor="start" x="247.495" y="-243.8" font-family="Times,serif" font-size="14.00">town :string</text>
<text text-anchor="start" x="247.495" y="-229.8" font-family="Times,serif" font-size="14.00">description :text</text>
<text text-anchor="start" x="247.495" y="-215.8" font-family="Times,serif" font-size="14.00">bedrooms :integer</text>
<text text-anchor="start" x="247.495" y="-201.8" font-family="Times,serif" font-size="14.00">bathrooms :integer</text>
<text text-anchor="start" x="247.495" y="-187.8" font-family="Times,serif" font-size="14.00">created_at :datetime</text>
<text text-anchor="start" x="247.495" y="-173.8" font-family="Times,serif" font-size="14.00">updated_at :datetime</text>
<text text-anchor="start" x="247.495" y="-159.8" font-family="Times,serif" font-size="14.00">user_id :integer</text>
</g>
<!-- House&#45;&gt;Comment -->
<g id="edge3" class="edge"><title>House&#45;&gt;Comment</title>
<path fill="none" stroke="#828bac" d="M233.66,-150.704C220.618,-136.409 207.365,-121.881 195.368,-108.73"/>
<ellipse fill="none" stroke="#828bac" cx="236.694" cy="-154.03" rx="4.00002" ry="4.00002"/>
<polygon fill="#828bac" stroke="#828bac" points="195.2,-108.546 191.785,-98.1254 191.83,-104.852 188.46,-101.158 188.46,-101.158 188.46,-101.158 191.83,-104.852 185.136,-104.191 195.2,-108.546 195.2,-108.546"/>
</g>
<!-- House&#45;&gt;Email -->
<g id="edge4" class="edge"><title>House&#45;&gt;Email</title>
<path fill="none" stroke="#475276" d="M310.001,-144.488C310.301,-138.075 310.601,-131.662 310.894,-125.394"/>
<ellipse fill="none" stroke="#475276" cx="309.812" cy="-148.51" rx="4" ry="4"/>
<polygon fill="#475276" stroke="#475276" points="310.912,-124.996 315.875,-115.217 311.146,-120.001 311.38,-115.007 311.38,-115.007 311.38,-115.007 311.146,-120.001 306.885,-114.796 310.912,-124.996 310.912,-124.996"/>
</g>
<!-- Rating -->
<g id="node5" class="node"><title>Rating</title>
<path fill="none" stroke="black" d="M415.495,-8C415.495,-8 524.505,-8 524.505,-8 530.505,-8 536.505,-14 536.505,-20 536.505,-20 536.505,-96 536.505,-96 536.505,-102 530.505,-108 524.505,-108 524.505,-108 415.495,-108 415.495,-108 409.495,-108 403.495,-102 403.495,-96 403.495,-96 403.495,-20 403.495,-20 403.495,-14 409.495,-8 415.495,-8"/>
<text text-anchor="middle" x="470" y="-92.8" font-family="Times,serif" font-size="14.00">Rating</text>
<polyline fill="none" stroke="black" points="403.495,-86 536.505,-86 "/>
<text text-anchor="start" x="411.495" y="-70.8" font-family="Times,serif" font-size="14.00">id :integer</text>
<text text-anchor="start" x="411.495" y="-56.8" font-family="Times,serif" font-size="14.00">user_id :integer</text>
<text text-anchor="start" x="411.495" y="-42.8" font-family="Times,serif" font-size="14.00">value :integer</text>
<text text-anchor="start" x="411.495" y="-28.8" font-family="Times,serif" font-size="14.00">created_at :datetime</text>
<text text-anchor="start" x="411.495" y="-14.8" font-family="Times,serif" font-size="14.00">updated_at :datetime</text>
</g>
<!-- House&#45;&gt;Rating -->
<g id="edge5" class="edge"><title>House&#45;&gt;Rating</title>
<path fill="none" stroke="#e4cf86" d="M378.262,-154.654C390.925,-141.45 403.903,-127.919 415.963,-115.343"/>
<ellipse fill="none" stroke="#e4cf86" cx="375.474" cy="-157.561" rx="4.00002" ry="4.00002"/>
<polygon fill="#e4cf86" stroke="#e4cf86" points="416.027,-115.276 426.197,-111.174 419.488,-111.668 422.949,-108.059 422.949,-108.059 422.949,-108.059 419.488,-111.668 419.701,-104.944 416.027,-115.276 416.027,-115.276"/>
</g>
<!-- User -->
<g id="node6" class="node"><title>User</title>
<path fill="none" stroke="black" d="M215.722,-347C215.722,-347 396.278,-347 396.278,-347 402.278,-347 408.278,-353 408.278,-359 408.278,-359 408.278,-561 408.278,-561 408.278,-567 402.278,-573 396.278,-573 396.278,-573 215.722,-573 215.722,-573 209.722,-573 203.722,-567 203.722,-561 203.722,-561 203.722,-359 203.722,-359 203.722,-353 209.722,-347 215.722,-347"/>
<text text-anchor="middle" x="306" y="-557.8" font-family="Times,serif" font-size="14.00">User</text>
<polyline fill="none" stroke="black" points="203.722,-551 408.278,-551 "/>
<text text-anchor="start" x="211.722" y="-535.8" font-family="Times,serif" font-size="14.00">id :integer</text>
<text text-anchor="start" x="211.722" y="-521.8" font-family="Times,serif" font-size="14.00">email :string</text>
<text text-anchor="start" x="211.722" y="-507.8" font-family="Times,serif" font-size="14.00">encrypted_password :string</text>
<text text-anchor="start" x="211.722" y="-493.8" font-family="Times,serif" font-size="14.00">reset_password_token :string</text>
<text text-anchor="start" x="211.722" y="-479.8" font-family="Times,serif" font-size="14.00">reset_password_sent_at :datetime</text>
<text text-anchor="start" x="211.722" y="-465.8" font-family="Times,serif" font-size="14.00">remember_created_at :datetime</text>
<text text-anchor="start" x="211.722" y="-451.8" font-family="Times,serif" font-size="14.00">sign_in_count :integer</text>
<text text-anchor="start" x="211.722" y="-437.8" font-family="Times,serif" font-size="14.00">current_sign_in_at :datetime</text>
<text text-anchor="start" x="211.722" y="-423.8" font-family="Times,serif" font-size="14.00">last_sign_in_at :datetime</text>
<text text-anchor="start" x="211.722" y="-409.8" font-family="Times,serif" font-size="14.00">current_sign_in_ip :string</text>
<text text-anchor="start" x="211.722" y="-395.8" font-family="Times,serif" font-size="14.00">last_sign_in_ip :string</text>
<text text-anchor="start" x="211.722" y="-381.8" font-family="Times,serif" font-size="14.00">created_at :datetime</text>
<text text-anchor="start" x="211.722" y="-367.8" font-family="Times,serif" font-size="14.00">updated_at :datetime</text>
<text text-anchor="start" x="211.722" y="-353.8" font-family="Times,serif" font-size="14.00">username :string</text>
</g>
<!-- User&#45;&gt;House -->
<g id="edge8" class="edge"><title>User&#45;&gt;House</title>
<path fill="none" stroke="#3dc229" d="M306,-338.775C306,-332.191 306,-325.638 306,-319.203"/>
<ellipse fill="none" stroke="#3dc229" cx="306" cy="-342.83" rx="4" ry="4"/>
<polygon fill="#3dc229" stroke="#3dc229" points="306,-319.203 310.5,-309.203 306,-314.203 306,-309.203 306,-309.203 306,-309.203 306,-314.203 301.5,-309.203 306,-319.203 306,-319.203"/>
</g>
<!-- ActiveRecord::Base -->
<g id="node7" class="node"><title>ActiveRecord::Base</title>
<ellipse fill="none" stroke="black" cx="306" cy="-647" rx="80.9821" ry="18"/>
<text text-anchor="middle" x="306" y="-642.8" font-family="Times,serif" font-size="14.00">ActiveRecord::Base</text>
</g>
<!-- ActiveRecord::Base&#45;&gt;Comment -->
<g id="edge1" class="edge"><title>ActiveRecord::Base&#45;&gt;Comment</title>
<path fill="none" stroke="black" d="M269.936,-630.691C228.548,-612.765 165.5,-584.221 159,-574 63.2697,-423.46 111.278,-194.79 137.133,-101.186"/>
</g>
<!-- ActiveRecord::Base&#45;&gt;Email -->
<g id="edge2" class="edge"><title>ActiveRecord::Base&#45;&gt;Email</title>
<path fill="none" stroke="black" d="M346.751,-631.339C371.915,-619.917 402.142,-601.348 417,-574 461.931,-491.299 417.989,-238.545 381,-152 375.604,-139.374 368.249,-126.798 360.384,-115.163"/>
</g>
<!-- ActiveRecord::Base&#45;&gt;House -->
<g id="edge6" class="edge"><title>ActiveRecord::Base&#45;&gt;House</title>
<path fill="none" stroke="black" d="M265.249,-631.339C240.085,-619.917 209.858,-601.348 195,-574 146.624,-484.959 156.846,-439.876 195,-346 204.569,-322.456 221.596,-301.111 239.484,-283.426"/>
</g>
<!-- ActiveRecord::Base&#45;&gt;Rating -->
<g id="edge7" class="edge"><title>ActiveRecord::Base&#45;&gt;Rating</title>
<path fill="none" stroke="black" d="M355.657,-632.735C385.409,-622.024 421.035,-603.721 440,-574 533.824,-426.964 502.258,-205.596 481.782,-108.084"/>
</g>
<!-- ActiveRecord::Base&#45;&gt;User -->
<g id="edge9" class="edge"><title>ActiveRecord::Base&#45;&gt;User</title>
<path fill="none" stroke="black" d="M306,-628.927C306,-615.331 306,-595.007 306,-573.149"/>
</g>
</g>
</svg>
