<?xml version="1.0" encoding="UTF-8" standalone="no"?>
<!DOCTYPE svg PUBLIC "-//W3C//DTD SVG 1.1//EN"
 "http://www.w3.org/Graphics/SVG/1.1/DTD/svg11.dtd">
<!-- Generated by graphviz version 2.36.0 (20140111.2315)
 -->
<!-- Title: models_diagram Pages: 1 -->
<svg width="438pt" height="298pt"
 viewBox="0.00 0.00 438.00 298.00" xmlns="http://www.w3.org/2000/svg" xmlns:xlink="http://www.w3.org/1999/xlink">
<g id="graph0" class="graph" transform="scale(1 1) rotate(0) translate(4 294)">
<title>models_diagram</title>
<polygon fill="white" stroke="none" points="-4,4 -4,-294 434,-294 434,4 -4,4"/>
<!-- _diagram_info -->
<g id="node1" class="node"><title>_diagram_info</title>
<text text-anchor="start" x="7.31226" y="-275.1" font-family="Times,serif" font-size="13.00">Models diagram</text>
<text text-anchor="start" x="7.31226" y="-262.1" font-family="Times,serif" font-size="13.00">Date: Apr 02 2014 &#45; 16:00</text>
<text text-anchor="start" x="7.31226" y="-249.1" font-family="Times,serif" font-size="13.00">Migration version: 20140402195714</text>
<text text-anchor="start" x="7.31226" y="-236.1" font-family="Times,serif" font-size="13.00">Generated by RailRoady 1.1.1</text>
<text text-anchor="start" x="7.31226" y="-223.1" font-family="Times,serif" font-size="13.00">http://railroady.prestonlee.com</text>
</g>
<!-- Comment -->
<g id="node2" class="node"><title>Comment</title>
<ellipse fill="none" stroke="black" cx="217" cy="-18" rx="44.4828" ry="18"/>
<text text-anchor="middle" x="217" y="-13.8" font-family="Times,serif" font-size="14.00">Comment</text>
</g>
<!-- Email -->
<g id="node3" class="node"><title>Email</title>
<ellipse fill="none" stroke="black" cx="313" cy="-18" rx="31.3408" ry="18"/>
<text text-anchor="middle" x="313" y="-13.8" font-family="Times,serif" font-size="14.00">Email</text>
</g>
<!-- House -->
<g id="node4" class="node"><title>House</title>
<ellipse fill="none" stroke="black" cx="300" cy="-90" rx="32.5542" ry="18"/>
<text text-anchor="middle" x="300" y="-85.8" font-family="Times,serif" font-size="14.00">House</text>
</g>
<!-- House&#45;&gt;Comment -->
<g id="edge3" class="edge"><title>House&#45;&gt;Comment</title>
<path fill="none" stroke="#1cc4ea" d="M276.652,-69.3088C266.228,-60.5176 253.901,-50.1217 243.167,-41.0688"/>
<ellipse fill="none" stroke="#1cc4ea" cx="279.745" cy="-71.9171" rx="4.00002" ry="4.00002"/>
<polygon fill="#1cc4ea" stroke="#1cc4ea" points="242.971,-40.9036 238.228,-31.0166 239.149,-37.6801 235.327,-34.4566 235.327,-34.4566 235.327,-34.4566 239.149,-37.6801 232.426,-37.8965 242.971,-40.9036 242.971,-40.9036"/>
</g>
<!-- House&#45;&gt;Email -->
<g id="edge4" class="edge"><title>House&#45;&gt;Email</title>
<path fill="none" stroke="#318278" d="M304.645,-63.9868C305.711,-58.2493 306.849,-52.1211 307.931,-46.2929"/>
<ellipse fill="none" stroke="#318278" cx="303.877" cy="-68.1222" rx="4.00001" ry="4.00001"/>
<polygon fill="#318278" stroke="#318278" points="307.966,-46.1072 314.216,-37.097 308.879,-41.1912 309.792,-36.2753 309.792,-36.2753 309.792,-36.2753 308.879,-41.1912 305.367,-35.4536 307.966,-46.1072 307.966,-46.1072"/>
</g>
<!-- Rating -->
<g id="node5" class="node"><title>Rating</title>
<ellipse fill="none" stroke="black" cx="397" cy="-18" rx="33.5311" ry="18"/>
<text text-anchor="middle" x="397" y="-13.8" font-family="Times,serif" font-size="14.00">Rating</text>
</g>
<!-- House&#45;&gt;Rating -->
<g id="edge5" class="edge"><title>House&#45;&gt;Rating</title>
<path fill="none" stroke="#6d8bde" d="M325.872,-70.3293C339.416,-60.5554 355.994,-48.5917 369.737,-38.674"/>
<ellipse fill="none" stroke="#6d8bde" cx="322.408" cy="-72.8295" rx="4.00002" ry="4.00002"/>
<polygon fill="#6d8bde" stroke="#6d8bde" points="369.767,-38.6529 380.509,-36.4501 373.821,-35.727 377.876,-32.801 377.876,-32.801 377.876,-32.801 373.821,-35.727 375.242,-29.152 369.767,-38.6529 369.767,-38.6529"/>
</g>
<!-- User -->
<g id="node6" class="node"><title>User</title>
<ellipse fill="none" stroke="black" cx="306" cy="-162" rx="27" ry="18"/>
<text text-anchor="middle" x="306" y="-157.8" font-family="Times,serif" font-size="14.00">User</text>
</g>
<!-- User&#45;&gt;House -->
<g id="edge8" class="edge"><title>User&#45;&gt;House</title>
<path fill="none" stroke="#dcacbd" d="M303.826,-135.64C303.348,-130.063 302.84,-124.132 302.355,-118.476"/>
<ellipse fill="none" stroke="#dcacbd" cx="304.175" cy="-139.711" rx="4" ry="4"/>
<polygon fill="#dcacbd" stroke="#dcacbd" points="302.32,-118.068 305.95,-107.72 301.893,-113.086 301.466,-108.104 301.466,-108.104 301.466,-108.104 301.893,-113.086 296.983,-108.489 302.32,-118.068 302.32,-118.068"/>
</g>
<!-- ActiveRecord::Base -->
<g id="node7" class="node"><title>ActiveRecord::Base</title>
<ellipse fill="none" stroke="black" cx="306" cy="-253" rx="80.9821" ry="18"/>
<text text-anchor="middle" x="306" y="-248.8" font-family="Times,serif" font-size="14.00">ActiveRecord::Base</text>
</g>
<!-- ActiveRecord::Base&#45;&gt;Comment -->
<g id="edge1" class="edge"><title>ActiveRecord::Base&#45;&gt;Comment</title>
<path fill="none" stroke="black" d="M294.067,-234.928C284.591,-220.751 271.556,-199.776 263,-180 241.299,-129.842 226.663,-66.5252 220.419,-36.4271"/>
</g>
<!-- ActiveRecord::Base&#45;&gt;Email -->
<g id="edge2" class="edge"><title>ActiveRecord::Base&#45;&gt;Email</title>
<path fill="none" stroke="black" d="M317.278,-235.117C325.958,-221.049 337.248,-200.13 342,-180 345.318,-165.943 346.082,-91.9061 341,-72 337.602,-58.6903 330.264,-45.0151 323.952,-34.8901"/>
</g>
<!-- ActiveRecord::Base&#45;&gt;House -->
<g id="edge6" class="edge"><title>ActiveRecord::Base&#45;&gt;House</title>
<path fill="none" stroke="black" d="M294.722,-235.117C286.042,-221.049 274.752,-200.13 270,-180 266.324,-164.428 265.925,-159.472 270,-144 273.501,-130.708 281.182,-117.249 287.896,-107.219"/>
</g>
<!-- ActiveRecord::Base&#45;&gt;Rating -->
<g id="edge7" class="edge"><title>ActiveRecord::Base&#45;&gt;Rating</title>
<path fill="none" stroke="black" d="M320.76,-235.089C332.192,-221.171 347.615,-200.469 357,-180 379.687,-130.519 390.678,-66.3453 394.877,-36.1436"/>
</g>
<!-- ActiveRecord::Base&#45;&gt;User -->
<g id="edge9" class="edge"><title>ActiveRecord::Base&#45;&gt;User</title>
<path fill="none" stroke="black" d="M306,-234.84C306,-219.08 306,-195.851 306,-180.107"/>
</g>
</g>
</svg>
